<svg width="24" height="27" viewBox="0 0 24 27" fill="none" xmlns="http://www.w3.org/2000/svg">
<path d="M3.07696 26.6667C2.41207 26.6667 1.84407 26.4312 1.37296 25.9603C0.90207 25.4892 0.666626 24.9212 0.666626 24.2563V9.07699C0.666626 8.4121 0.90207 7.8441 1.37296 7.37299C1.84407 6.9021 2.41207 6.66666 3.07696 6.66666H5.99996C5.99996 5.00177 6.58374 3.58554 7.75129 2.41799C8.91885 1.25043 10.3351 0.666656 12 0.666656C13.6648 0.666656 15.0811 1.25043 16.2486 2.41799C17.4162 3.58554 18 5.00177 18 6.66666H20.923C21.5878 6.66666 22.1558 6.9021 22.627 7.37299C23.0978 7.8441 23.3333 8.4121 23.3333 9.07699V24.2563C23.3333 24.9212 23.0978 25.4892 22.627 25.9603C22.1558 26.4312 21.5878 26.6667 20.923 26.6667H3.07696ZM3.07696 24.6667H20.923C21.0256 24.6667 21.1196 24.6239 21.205 24.5383C21.2905 24.453 21.3333 24.359 21.3333 24.2563V9.07699C21.3333 8.97432 21.2905 8.88032 21.205 8.79499C21.1196 8.70943 21.0256 8.66666 20.923 8.66666H3.07696C2.97429 8.66666 2.88029 8.70943 2.79496 8.79499C2.7094 8.88032 2.66663 8.97432 2.66663 9.07699V24.2563C2.66663 24.359 2.7094 24.453 2.79496 24.5383C2.88029 24.6239 2.97429 24.6667 3.07696 24.6667ZM12 16C13.6648 16 15.0811 15.4162 16.2486 14.2487C17.4162 13.0811 18 11.6649 18 9.99999H16C16 11.1111 15.6111 12.0555 14.8333 12.8333C14.0555 13.6111 13.1111 14 12 14C10.8888 14 9.9444 13.6111 9.16663 12.8333C8.38885 12.0555 7.99996 11.1111 7.99996 9.99999H5.99996C5.99996 11.6649 6.58374 13.0811 7.75129 14.2487C8.91885 15.4162 10.3351 16 12 16ZM7.99996 6.66666H16C16 5.55555 15.6111 4.6111 14.8333 3.83332C14.0555 3.05555 13.1111 2.66666 12 2.66666C10.8888 2.66666 9.9444 3.05555 9.16663 3.83332C8.38885 4.6111 7.99996 5.55555 7.99996 6.66666Z" fill="black" style="fill:black;fill-opacity:1;"/>
</svg>
