<svg width="18" height="18" viewBox="0 0 18 18" fill="none" xmlns="http://www.w3.org/2000/svg">
<path d="M16.5421 17.577L10.2613 11.296C9.76131 11.7088 9.18631 12.0319 8.53631 12.2653C7.88631 12.4986 7.21389 12.6153 6.51906 12.6153C4.80989 12.6153 3.36339 12.0235 2.17956 10.84C0.995725 9.65652 0.403809 8.21035 0.403809 6.50152C0.403809 4.79285 0.995558 3.34618 2.17906 2.16152C3.36256 0.977016 4.80873 0.384766 6.51756 0.384766C8.22623 0.384766 9.67289 0.976682 10.8576 2.16051C12.0421 3.34435 12.6343 4.79085 12.6343 6.50002C12.6343 7.21418 12.5145 7.89627 12.2748 8.54627C12.035 9.19627 11.7151 9.7616 11.3151 10.2423L17.5958 16.523L16.5421 17.577ZM6.51906 11.1155C7.80756 11.1155 8.89889 10.6683 9.79306 9.77402C10.6874 8.87985 11.1346 7.78852 11.1346 6.50002C11.1346 5.21152 10.6874 4.12018 9.79306 3.22601C8.89889 2.33168 7.80756 1.88452 6.51906 1.88452C5.23056 1.88452 4.13923 2.33168 3.24506 3.22601C2.35073 4.12018 1.90356 5.21152 1.90356 6.50002C1.90356 7.78852 2.35073 8.87985 3.24506 9.77402C4.13923 10.6683 5.23056 11.1155 6.51906 11.1155Z" fill="#000" style="fill:#000;fill-opacity:1;"/>
</svg>
