<svg width="38" height="24" viewBox="0 0 38 24" fill="none" xmlns="http://www.w3.org/2000/svg">
<g clip-path="url(#clip0_2048_770)">
<path opacity="0.07" d="M35 0H3C1.3 0 0 1.3 0 3V21C0 22.7 1.4 24 3 24H35C36.7 24 38 22.7 38 21V3C38 1.3 36.6 0 35 0Z" fill="#161818" style="fill:#161818;fill:color(display-p3 0.0863 0.0941 0.0941);fill-opacity:1;"/>
<path d="M35 1C36.1 1 37 1.9 37 3V21C37 22.1 36.1 23 35 23H3C1.9 23 1 22.1 1 21V3C1 1.9 1.9 1 3 1H35Z" fill="white" style="fill:white;fill-opacity:1;"/>
<path d="M18.093 11.9762V15.1762H17.075V7.27623H19.766C20.0884 7.27077 20.4088 7.3291 20.7086 7.44786C21.0084 7.56661 21.2818 7.74346 21.513 7.96823C21.732 8.17262 21.9087 8.41818 22.0327 8.69087C22.1568 8.96355 22.2259 9.25802 22.2362 9.55743C22.2464 9.85685 22.1975 10.1553 22.0923 10.4358C21.9871 10.7164 21.8276 10.9734 21.623 11.1922L21.513 11.3082C21.043 11.7552 20.415 11.9982 19.766 11.9822L18.093 11.9762ZM18.093 8.24423V11.0322H19.791C20.168 11.0442 20.532 10.8972 20.796 10.6282C20.9848 10.4314 21.1117 10.1834 21.1606 9.91506C21.2096 9.64673 21.1787 9.36992 21.0716 9.11906C20.9645 8.8682 20.786 8.65436 20.5583 8.50415C20.3306 8.35394 20.0638 8.27398 19.791 8.27423L18.093 8.24423ZM24.577 9.59223C25.227 9.56223 25.863 9.78023 26.355 10.2052C26.8 10.6352 27.037 11.2352 27.005 11.8542V15.1882H26.036V14.4222H25.987C25.8132 14.7095 25.5675 14.9465 25.2741 15.1098C24.9807 15.2731 24.6498 15.357 24.314 15.3532C23.7659 15.371 23.2314 15.1805 22.818 14.8202C22.6221 14.6605 22.4652 14.4582 22.359 14.2289C22.2528 13.9995 22.2001 13.749 22.205 13.4962C22.1935 13.2408 22.2431 12.9864 22.3497 12.754C22.4563 12.5216 22.6169 12.318 22.818 12.1602C23.3114 11.8054 23.9086 11.6243 24.516 11.6452C25.033 11.6252 25.546 11.7382 26.006 11.9762V11.7682C26.0094 11.5963 25.9736 11.4258 25.9014 11.2697C25.8291 11.1136 25.7223 10.976 25.589 10.8672C25.3213 10.6239 24.9707 10.4922 24.609 10.4992C24.3463 10.4968 24.0874 10.5613 23.8566 10.6868C23.6258 10.8122 23.4308 10.9944 23.29 11.2162L22.395 10.6522C22.638 10.304 22.9661 10.0238 23.3481 9.83828C23.73 9.65274 24.1531 9.56803 24.577 9.59223ZM23.29 13.5202C23.2876 13.6497 23.3171 13.7779 23.3758 13.8933C23.4346 14.0088 23.5209 14.108 23.627 14.1822C23.85 14.3582 24.127 14.4512 24.412 14.4452C24.841 14.4442 25.252 14.2752 25.558 13.9732C25.863 13.6872 26.036 13.2882 26.036 12.8702C25.651 12.5965 25.1833 12.4644 24.712 12.4962C24.3461 12.4818 23.9852 12.5848 23.682 12.7902C23.5619 12.8706 23.4634 12.9791 23.3951 13.1064C23.3267 13.2337 23.2907 13.3758 23.29 13.5202ZM32.576 9.77023L29.186 17.5602H28.138L29.419 14.8322L27.195 9.77023H28.298L29.91 13.6552L31.479 9.77023H32.576Z" fill="#5F6368" style="fill:#5F6368;fill:color(display-p3 0.3725 0.3882 0.4078);fill-opacity:1;"/>
<path d="M13.986 11.2838C13.986 10.9758 13.962 10.6678 13.913 10.3638H9.62299V12.1108H12.074C12.0241 12.3884 11.9186 12.6531 11.764 12.889C11.6094 13.125 11.4087 13.3273 11.174 13.4838V14.6178H12.638C13.0831 14.1871 13.4331 13.6678 13.6652 13.0936C13.8974 12.5194 14.0067 11.9028 13.986 11.2838Z" fill="#4285F4" style="fill:#4285F4;fill:color(display-p3 0.2588 0.5216 0.9569);fill-opacity:1;"/>
<path d="M9.629 15.7209C10.7353 15.7513 11.8116 15.359 12.639 14.6239L11.173 13.4839C10.8207 13.7098 10.4216 13.8523 10.006 13.9008C9.59039 13.9492 9.1692 13.9022 8.77448 13.7633C8.37975 13.6245 8.02188 13.3975 7.72808 13.0995C7.43429 12.8016 7.2123 12.4406 7.079 12.0439H5.577V13.2139C5.95284 13.967 6.53104 14.6004 7.24675 15.0432C7.96246 15.486 8.78738 15.7207 9.629 15.7209Z" fill="#34A853" style="fill:#34A853;fill:color(display-p3 0.2039 0.6588 0.3255);fill-opacity:1;"/>
<path d="M7.07899 12.05C6.88879 11.4873 6.88879 10.8777 7.07899 10.315V9.14502H5.57699C5.25678 9.77647 5.0899 10.4745 5.0899 11.1825C5.0899 11.8905 5.25678 12.5886 5.57699 13.22L7.07899 12.05Z" fill="#FBBC04" style="fill:#FBBC04;fill:color(display-p3 0.9843 0.7373 0.0157);fill-opacity:1;"/>
<path d="M9.629 8.44019C10.276 8.42837 10.9015 8.6728 11.369 9.12019L12.669 7.82719C11.8401 7.0492 10.7406 6.62485 9.604 6.64419C8.76736 6.64838 7.94824 6.88419 7.23743 7.32547C6.52662 7.76674 5.9519 8.39625 5.577 9.14419L7.079 10.3152C7.25462 9.77527 7.59508 9.304 8.0525 8.96766C8.50992 8.63132 9.06127 8.44685 9.629 8.44019Z" fill="#EA4335" style="fill:#EA4335;fill:color(display-p3 0.9176 0.2627 0.2078);fill-opacity:1;"/>
</g>
<defs>
<clipPath id="clip0_2048_770">
<rect width="38" height="24" fill="white" style="fill:white;fill-opacity:1;"/>
</clipPath>
</defs>
</svg>
