<svg width="38" height="24" viewBox="0 0 38 24" fill="none" xmlns="http://www.w3.org/2000/svg">
<g clip-path="url(#clip0_2048_788)">
<path opacity="0.07" d="M35 0H3C1.3 0 0 1.3 0 3V21C0 22.7 1.4 24 3 24H35C36.7 24 38 22.7 38 21V3C38 1.3 36.6 0 35 0Z" fill="#161818" style="fill:#161818;fill:color(display-p3 0.0863 0.0941 0.0941);fill-opacity:1;"/>
<path d="M35 1C36.1 1 37 1.9 37 3V21C37 22.1 36.1 23 35 23H3C1.9 23 1 22.1 1 21V3C1 1.9 1.9 1 3 1H35Z" fill="#FFB3C7" style="fill:#FFB3C7;fill:color(display-p3 1.0000 0.7020 0.7804);fill-opacity:1;"/>
<path fill-rule="evenodd" clip-rule="evenodd" d="M33.1744 13.6836C32.7184 13.6836 32.3488 14.0832 32.3488 14.5762C32.3488 15.0692 32.7184 15.4689 33.1744 15.4689C33.6303 15.4689 34 15.0692 34 14.5762C34 14.0832 33.6303 13.6836 33.1744 13.6836ZM30.4581 12.9934C30.4581 12.3184 29.9245 11.7713 29.2663 11.7713C28.6081 11.7713 28.0744 12.3184 28.0744 12.9934C28.0744 13.6684 28.608 14.2156 29.2663 14.2156C29.9246 14.2156 30.4581 13.6684 30.4581 12.9934ZM30.4625 10.6181H31.7779V15.3685H30.4625V15.0649C30.0909 15.3389 29.6424 15.5 29.1586 15.5C27.8783 15.5 26.8404 14.3777 26.8404 12.9934C26.8404 11.609 27.8783 10.4868 29.1586 10.4868C29.6424 10.4868 30.091 10.6479 30.4625 10.922V10.6181ZM19.9362 11.2369V10.6182H18.5895V15.3685H19.9392V13.1506C19.9392 12.4024 20.6892 12.0002 21.2097 12.0002C21.215 12.0002 21.22 12.0007 21.2253 12.0008V10.6186C20.6912 10.6186 20.1999 10.8658 19.9362 11.2369ZM16.5816 12.9934C16.5816 12.3184 16.0479 11.7713 15.3897 11.7713C14.7315 11.7713 14.1978 12.3184 14.1978 12.9934C14.1978 13.6684 14.7314 14.2156 15.3897 14.2156C16.0479 14.2156 16.5816 13.6684 16.5816 12.9934ZM16.5859 10.6181H17.9013V15.3685H16.5859V15.0649C16.2143 15.3389 15.7657 15.5 15.282 15.5C14.0017 15.5 12.9638 14.3778 12.9638 12.9934C12.9638 11.609 14.0017 10.4868 15.282 10.4868C15.7658 10.4868 16.2143 10.6479 16.5859 10.922V10.6181ZM24.5031 10.4904C23.9777 10.4904 23.4804 10.6668 23.1479 11.1534V10.6184H21.8382V15.3685H23.164V12.8722C23.164 12.1498 23.612 11.7961 24.1514 11.7961C24.7295 11.7961 25.0619 12.1695 25.0619 12.8624V15.3685H26.3757V12.3477C26.3757 11.2422 25.5628 10.4904 24.5031 10.4904ZM11.0478 15.3685H12.4245V8.50126H11.0478V15.3685ZM5 15.3704H6.45783V8.50002H5V15.3704ZM10.099 8.50002C10.099 9.98739 9.56293 11.371 8.60771 12.3995L10.6228 15.3707H8.82223L6.63224 12.1417L7.19744 11.684C8.13476 10.9248 8.67238 9.76431 8.67238 8.5L10.099 8.50002Z" fill="#0A0B09" style="fill:#0A0B09;fill:color(display-p3 0.0392 0.0431 0.0353);fill-opacity:1;"/>
</g>
<defs>
<clipPath id="clip0_2048_788">
<rect width="38" height="24" fill="white" style="fill:white;fill-opacity:1;"/>
</clipPath>
</defs>
</svg>
